<svg width="22" height="22" viewBox="0 0 22 22" fill="none" xmlns="http://www.w3.org/2000/svg">
<path d="M11 14.6667C13.025 14.6667 14.6666 13.025 14.6666 11C14.6666 8.97496 13.025 7.33333 11 7.33333C8.97494 7.33333 7.33331 8.97496 7.33331 11C7.33331 13.025 8.97494 14.6667 11 14.6667Z" fill="black"/>
<path d="M11.9166 3.72992V1.83333H10.0833V3.72992C8.47025 3.93587 6.9712 4.67149 5.82134 5.82136C4.67147 6.97122 3.93585 8.47027 3.7299 10.0833H1.83331V11.9167H3.7299C3.93555 13.5298 4.67107 15.0291 5.82099 16.179C6.97091 17.3289 8.47013 18.0644 10.0833 18.2701V20.1667H11.9166V18.2701C13.5299 18.0646 15.0292 17.3291 16.1791 16.1792C17.3291 15.0292 18.0646 13.5299 18.2701 11.9167H20.1666V10.0833H18.2701C18.0644 8.47015 17.3289 6.97093 16.179 5.82101C15.029 4.67109 13.5298 3.93557 11.9166 3.72992ZM11 16.5C7.96673 16.5 5.49998 14.0332 5.49998 11C5.49998 7.96675 7.96673 5.5 11 5.5C14.0332 5.5 16.5 7.96675 16.5 11C16.5 14.0332 14.0332 16.5 11 16.5Z" fill="#EC8F65"/>
</svg>
