<svg width="19" height="22" viewBox="0 0 19 22" fill="none" xmlns="http://www.w3.org/2000/svg">
<path d="M17.4166 3.91112L15.4639 1.65001C15.296 1.4647 15.073 1.36133 14.8411 1.36133C14.6092 1.36133 14.3862 1.4647 14.2183 1.65001L12.4819 3.66667H3.16664C2.88669 3.66667 2.6182 3.79544 2.42025 4.02465C2.22229 4.25386 2.11108 4.56474 2.11108 4.88889V18.3333C2.11108 18.6575 2.22229 18.9684 2.42025 19.1976C2.6182 19.4268 2.88669 19.5556 3.16664 19.5556H14.7778C15.0577 19.5556 15.3262 19.4268 15.5241 19.1976C15.7221 18.9684 15.8333 18.6575 15.8333 18.3333V7.18667L17.4166 5.35334C17.5817 5.16199 17.6743 4.90264 17.6743 4.63223C17.6743 4.36182 17.5817 4.10246 17.4166 3.91112ZM9.93803 12.3017L7.72664 12.87L8.25442 10.3339L13.2947 4.48556L14.9994 6.45945L9.93803 12.3017ZM15.5694 5.76278L13.8647 3.78889L14.8411 2.65834L16.5458 4.63223L15.5694 5.76278Z" fill="black"/>
</svg>
