<svg width="321" height="215" viewBox="0 0 321 215" fill="none" xmlns="http://www.w3.org/2000/svg">
<rect width="321" height="215" rx="25" fill="#F7F3F5"/>
<path d="M21.79 51.676H17.338L16.484 54H15.448L19.018 44.34H20.124L23.68 54H22.644L21.79 51.676ZM21.496 50.864L19.564 45.572L17.632 50.864H21.496ZM26.2328 53.202H29.7468V54H25.2528V44.214H26.2328V53.202ZM36.8714 44.214V45.026H34.1554V54H33.1754V45.026H30.4454V44.214H36.8714ZM39.3988 44.214V54H38.4188V44.214H39.3988ZM44.586 54.098C43.942 54.098 43.3727 53.986 42.878 53.762C42.3927 53.538 42.01 53.2253 41.73 52.824C41.45 52.4227 41.3007 51.9747 41.282 51.48H42.318C42.3647 51.956 42.5747 52.376 42.948 52.74C43.3214 53.0947 43.8674 53.272 44.586 53.272C45.2487 53.272 45.7714 53.104 46.154 52.768C46.546 52.4227 46.742 51.9887 46.742 51.466C46.742 51.046 46.6347 50.71 46.42 50.458C46.2054 50.1967 45.9394 50.0053 45.622 49.884C45.3047 49.7533 44.866 49.6133 44.306 49.464C43.6527 49.2867 43.1347 49.114 42.752 48.946C42.3694 48.778 42.0427 48.5167 41.772 48.162C41.5014 47.8073 41.366 47.3267 41.366 46.72C41.366 46.216 41.4967 45.768 41.758 45.376C42.0194 44.9747 42.388 44.662 42.864 44.438C43.34 44.214 43.886 44.102 44.502 44.102C45.4074 44.102 46.1354 44.326 46.686 44.774C47.246 45.2127 47.568 45.782 47.652 46.482H46.588C46.5227 46.0807 46.3034 45.726 45.93 45.418C45.5567 45.1007 45.0527 44.942 44.418 44.942C43.83 44.942 43.34 45.1007 42.948 45.418C42.556 45.726 42.36 46.1507 42.36 46.692C42.36 47.1027 42.4674 47.434 42.682 47.686C42.8967 47.938 43.1627 48.1293 43.48 48.26C43.8067 48.3907 44.2454 48.5307 44.796 48.68C45.4307 48.8573 45.944 49.0347 46.336 49.212C46.728 49.38 47.0594 49.6413 47.33 49.996C47.6007 50.3507 47.736 50.8267 47.736 51.424C47.736 51.8813 47.6147 52.3153 47.372 52.726C47.1294 53.1367 46.77 53.468 46.294 53.72C45.818 53.972 45.2487 54.098 44.586 54.098ZM59.1918 44.34V54H58.2118V46.286L54.7678 54H54.0538L50.6098 46.314V54H49.6298V44.34H50.6658L54.4038 52.712L58.1418 44.34H59.1918ZM66.2367 44.214V54H65.2567V44.214H66.2367ZM71.4239 54.098C70.7799 54.098 70.2106 53.986 69.7159 53.762C69.2306 53.538 68.8479 53.2253 68.5679 52.824C68.2879 52.4227 68.1386 51.9747 68.1199 51.48H69.1559C69.2026 51.956 69.4126 52.376 69.7859 52.74C70.1593 53.0947 70.7053 53.272 71.4239 53.272C72.0866 53.272 72.6093 53.104 72.9919 52.768C73.3839 52.4227 73.5799 51.9887 73.5799 51.466C73.5799 51.046 73.4726 50.71 73.2579 50.458C73.0433 50.1967 72.7773 50.0053 72.4599 49.884C72.1426 49.7533 71.7039 49.6133 71.1439 49.464C70.4906 49.2867 69.9726 49.114 69.5899 48.946C69.2073 48.778 68.8806 48.5167 68.6099 48.162C68.3393 47.8073 68.2039 47.3267 68.2039 46.72C68.2039 46.216 68.3346 45.768 68.5959 45.376C68.8573 44.9747 69.2259 44.662 69.7019 44.438C70.1779 44.214 70.7239 44.102 71.3399 44.102C72.2453 44.102 72.9733 44.326 73.5239 44.774C74.0839 45.2127 74.4059 45.782 74.4899 46.482H73.4259C73.3606 46.0807 73.1413 45.726 72.7679 45.418C72.3946 45.1007 71.8906 44.942 71.2559 44.942C70.6679 44.942 70.1779 45.1007 69.7859 45.418C69.3939 45.726 69.1979 46.1507 69.1979 46.692C69.1979 47.1027 69.3053 47.434 69.5199 47.686C69.7346 47.938 70.0006 48.1293 70.3179 48.26C70.6446 48.3907 71.0833 48.5307 71.6339 48.68C72.2686 48.8573 72.7819 49.0347 73.1739 49.212C73.5659 49.38 73.8973 49.6413 74.1679 49.996C74.4386 50.3507 74.5739 50.8267 74.5739 51.424C74.5739 51.8813 74.4526 52.3153 74.2099 52.726C73.9673 53.1367 73.6079 53.468 73.1319 53.72C72.6559 53.972 72.0866 54.098 71.4239 54.098ZM84.8875 48.946C85.4381 49.0487 85.9048 49.3287 86.2875 49.786C86.6701 50.2433 86.8615 50.7753 86.8615 51.382C86.8615 51.8767 86.7355 52.3247 86.4835 52.726C86.2408 53.118 85.8815 53.4307 85.4055 53.664C84.9295 53.888 84.3601 54 83.6975 54H80.3095V44.214H83.5995C84.5888 44.214 85.3401 44.4427 85.8535 44.9C86.3761 45.3573 86.6375 45.95 86.6375 46.678C86.6375 47.2847 86.4741 47.7793 86.1475 48.162C85.8208 48.5353 85.4008 48.7967 84.8875 48.946ZM81.2895 48.54H83.5715C84.2341 48.54 84.7428 48.386 85.0975 48.078C85.4615 47.7607 85.6435 47.3267 85.6435 46.776C85.6435 46.2347 85.4615 45.81 85.0975 45.502C84.7428 45.194 84.2201 45.04 83.5295 45.04H81.2895V48.54ZM83.6275 53.174C84.3368 53.174 84.8875 53.006 85.2795 52.67C85.6808 52.334 85.8815 51.872 85.8815 51.284C85.8815 50.696 85.6715 50.2293 85.2515 49.884C84.8408 49.5293 84.2855 49.352 83.5855 49.352H81.2895V53.174H83.6275ZM89.643 45.012V48.666H93.353V49.478H89.643V53.188H93.773V54H88.663V44.2H93.773V45.012H89.643ZM98.672 54.098C98.028 54.098 97.4587 53.986 96.964 53.762C96.4787 53.538 96.096 53.2253 95.816 52.824C95.536 52.4227 95.3867 51.9747 95.368 51.48H96.404C96.4507 51.956 96.6607 52.376 97.034 52.74C97.4073 53.0947 97.9533 53.272 98.672 53.272C99.3347 53.272 99.8573 53.104 100.24 52.768C100.632 52.4227 100.828 51.9887 100.828 51.466C100.828 51.046 100.721 50.71 100.506 50.458C100.291 50.1967 100.025 50.0053 99.708 49.884C99.3907 49.7533 98.952 49.6133 98.392 49.464C97.7387 49.2867 97.2207 49.114 96.838 48.946C96.4553 48.778 96.1287 48.5167 95.858 48.162C95.5873 47.8073 95.452 47.3267 95.452 46.72C95.452 46.216 95.5827 45.768 95.844 45.376C96.1053 44.9747 96.474 44.662 96.95 44.438C97.426 44.214 97.972 44.102 98.588 44.102C99.4933 44.102 100.221 44.326 100.772 44.774C101.332 45.2127 101.654 45.782 101.738 46.482H100.674C100.609 46.0807 100.389 45.726 100.016 45.418C99.6427 45.1007 99.1387 44.942 98.504 44.942C97.916 44.942 97.426 45.1007 97.034 45.418C96.642 45.726 96.446 46.1507 96.446 46.692C96.446 47.1027 96.5533 47.434 96.768 47.686C96.9827 47.938 97.2487 48.1293 97.566 48.26C97.8927 48.3907 98.3313 48.5307 98.882 48.68C99.5167 48.8573 100.03 49.0347 100.422 49.212C100.814 49.38 101.145 49.6413 101.416 49.996C101.687 50.3507 101.822 50.8267 101.822 51.424C101.822 51.8813 101.701 52.3153 101.458 52.726C101.215 53.1367 100.856 53.468 100.38 53.72C99.904 53.972 99.3347 54.098 98.672 54.098ZM109.442 44.214V45.026H106.726V54H105.746V45.026H103.016V44.214H109.442ZM120.501 51.676H116.049L115.195 54H114.159L117.729 44.34H118.835L122.391 54H121.355L120.501 51.676ZM120.207 50.864L118.275 45.572L116.343 50.864H120.207ZM124.944 53.202H128.458V54H123.964V44.214H124.944V53.202ZM141.728 44.214L138.956 54H137.864L135.4 45.656L132.88 54L131.816 54.014L129.1 44.214H130.15L132.39 52.796L134.896 44.214H135.988L138.424 52.796L140.678 44.214H141.728ZM148.897 51.676H144.445L143.591 54H142.555L146.125 44.34H147.231L150.787 54H149.751L148.897 51.676ZM148.603 50.864L146.671 45.572L144.739 50.864H148.603ZM158.828 44.214L155.692 50.192V54H154.712V50.192L151.548 44.214H152.654L155.202 49.296L157.736 44.214H158.828ZM163.231 54.098C162.587 54.098 162.017 53.986 161.523 53.762C161.037 53.538 160.655 53.2253 160.375 52.824C160.095 52.4227 159.945 51.9747 159.927 51.48H160.963C161.009 51.956 161.219 52.376 161.593 52.74C161.966 53.0947 162.512 53.272 163.231 53.272C163.893 53.272 164.416 53.104 164.799 52.768C165.191 52.4227 165.387 51.9887 165.387 51.466C165.387 51.046 165.279 50.71 165.065 50.458C164.85 50.1967 164.584 50.0053 164.267 49.884C163.949 49.7533 163.511 49.6133 162.951 49.464C162.297 49.2867 161.779 49.114 161.397 48.946C161.014 48.778 160.687 48.5167 160.417 48.162C160.146 47.8073 160.011 47.3267 160.011 46.72C160.011 46.216 160.141 45.768 160.403 45.376C160.664 44.9747 161.033 44.662 161.509 44.438C161.985 44.214 162.531 44.102 163.147 44.102C164.052 44.102 164.78 44.326 165.331 44.774C165.891 45.2127 166.213 45.782 166.297 46.482H165.233C165.167 46.0807 164.948 45.726 164.575 45.418C164.201 45.1007 163.697 44.942 163.063 44.942C162.475 44.942 161.985 45.1007 161.593 45.418C161.201 45.726 161.005 46.1507 161.005 46.692C161.005 47.1027 161.112 47.434 161.327 47.686C161.541 47.938 161.807 48.1293 162.125 48.26C162.451 48.3907 162.89 48.5307 163.441 48.68C164.075 48.8573 164.589 49.0347 164.981 49.212C165.373 49.38 165.704 49.6413 165.975 49.996C166.245 50.3507 166.381 50.8267 166.381 51.424C166.381 51.8813 166.259 52.3153 166.017 52.726C165.774 53.1367 165.415 53.468 164.939 53.72C164.463 53.972 163.893 54.098 163.231 54.098ZM177.408 44.214V45.026H173.096V48.68H176.736V49.492H173.096V54H172.116V44.214H177.408ZM183.416 54.098C182.511 54.098 181.69 53.888 180.952 53.468C180.215 53.0387 179.632 52.446 179.202 51.69C178.782 50.9247 178.572 50.0613 178.572 49.1C178.572 48.1387 178.782 47.28 179.202 46.524C179.632 45.7587 180.215 45.166 180.952 44.746C181.69 44.3167 182.511 44.102 183.416 44.102C184.331 44.102 185.157 44.3167 185.894 44.746C186.632 45.166 187.21 45.7587 187.63 46.524C188.05 47.28 188.26 48.1387 188.26 49.1C188.26 50.0613 188.05 50.9247 187.63 51.69C187.21 52.446 186.632 53.0387 185.894 53.468C185.157 53.888 184.331 54.098 183.416 54.098ZM183.416 53.244C184.144 53.244 184.798 53.076 185.376 52.74C185.955 52.404 186.412 51.9233 186.748 51.298C187.084 50.6633 187.252 49.9307 187.252 49.1C187.252 48.2693 187.084 47.5413 186.748 46.916C186.412 46.2907 185.955 45.81 185.376 45.474C184.798 45.138 184.144 44.97 183.416 44.97C182.688 44.97 182.035 45.138 181.456 45.474C180.878 45.81 180.42 46.2907 180.084 46.916C179.748 47.5413 179.58 48.2693 179.58 49.1C179.58 49.9307 179.748 50.6633 180.084 51.298C180.42 51.9233 180.878 52.404 181.456 52.74C182.035 53.076 182.688 53.244 183.416 53.244ZM191.034 53.202H194.548V54H190.054V44.214H191.034V53.202ZM196.926 53.202H200.44V54H195.946V44.214H196.926V53.202ZM206.235 54.098C205.329 54.098 204.508 53.888 203.771 53.468C203.033 53.0387 202.45 52.446 202.021 51.69C201.601 50.9247 201.391 50.0613 201.391 49.1C201.391 48.1387 201.601 47.28 202.021 46.524C202.45 45.7587 203.033 45.166 203.771 44.746C204.508 44.3167 205.329 44.102 206.235 44.102C207.149 44.102 207.975 44.3167 208.713 44.746C209.45 45.166 210.029 45.7587 210.449 46.524C210.869 47.28 211.079 48.1387 211.079 49.1C211.079 50.0613 210.869 50.9247 210.449 51.69C210.029 52.446 209.45 53.0387 208.713 53.468C207.975 53.888 207.149 54.098 206.235 54.098ZM206.235 53.244C206.963 53.244 207.616 53.076 208.195 52.74C208.773 52.404 209.231 51.9233 209.567 51.298C209.903 50.6633 210.071 49.9307 210.071 49.1C210.071 48.2693 209.903 47.5413 209.567 46.916C209.231 46.2907 208.773 45.81 208.195 45.474C207.616 45.138 206.963 44.97 206.235 44.97C205.507 44.97 204.853 45.138 204.275 45.474C203.696 45.81 203.239 46.2907 202.903 46.916C202.567 47.5413 202.399 48.2693 202.399 49.1C202.399 49.9307 202.567 50.6633 202.903 51.298C203.239 51.9233 203.696 52.404 204.275 52.74C204.853 53.076 205.507 53.244 206.235 53.244ZM224.744 44.214L221.972 54H220.88L218.416 45.656L215.896 54L214.832 54.014L212.116 44.214H213.166L215.406 52.796L217.912 44.214H219.004L221.44 52.796L223.694 44.214H224.744ZM231.065 44.214V54H230.085V44.214H231.065ZM239.01 44.214V45.026H236.294V54H235.314V45.026H232.584V44.214H239.01ZM241.874 44.214L241.748 51.41H240.922L240.81 44.214H241.874ZM241.384 54.07C241.178 54.07 241.006 54 240.866 53.86C240.735 53.72 240.67 53.5473 240.67 53.342C240.67 53.1367 240.735 52.9687 240.866 52.838C241.006 52.698 241.178 52.628 241.384 52.628C241.58 52.628 241.743 52.698 241.874 52.838C242.014 52.9687 242.084 53.1367 242.084 53.342C242.084 53.5473 242.014 53.72 241.874 53.86C241.743 54 241.58 54.07 241.384 54.07ZM20.516 75.098C19.6107 75.098 18.7893 74.888 18.052 74.468C17.3147 74.0387 16.7313 73.446 16.302 72.69C15.882 71.9247 15.672 71.0613 15.672 70.1C15.672 69.1387 15.882 68.28 16.302 67.524C16.7313 66.7587 17.3147 66.166 18.052 65.746C18.7893 65.3167 19.6107 65.102 20.516 65.102C21.4307 65.102 22.2567 65.3167 22.994 65.746C23.7313 66.166 24.31 66.7587 24.73 67.524C25.15 68.28 25.36 69.1387 25.36 70.1C25.36 71.0613 25.15 71.9247 24.73 72.69C24.31 73.446 23.7313 74.0387 22.994 74.468C22.2567 74.888 21.4307 75.098 20.516 75.098ZM20.516 74.244C21.244 74.244 21.8973 74.076 22.476 73.74C23.0547 73.404 23.512 72.9233 23.848 72.298C24.184 71.6633 24.352 70.9307 24.352 70.1C24.352 69.2693 24.184 68.5413 23.848 67.916C23.512 67.2907 23.0547 66.81 22.476 66.474C21.8973 66.138 21.244 65.97 20.516 65.97C19.788 65.97 19.1347 66.138 18.556 66.474C17.9773 66.81 17.52 67.2907 17.184 67.916C16.848 68.5413 16.68 69.2693 16.68 70.1C16.68 70.9307 16.848 71.6633 17.184 72.298C17.52 72.9233 17.9773 73.404 18.556 73.74C19.1347 74.076 19.788 74.244 20.516 74.244ZM28.0912 65.214V71.374C28.0912 72.3447 28.3199 73.0633 28.7772 73.53C29.2439 73.9967 29.8785 74.23 30.6812 74.23C31.4839 74.23 32.1092 74.0013 32.5572 73.544C33.0145 73.0773 33.2432 72.354 33.2432 71.374V65.214H34.2232V71.36C34.2232 72.6013 33.8919 73.5347 33.2292 74.16C32.5759 74.7853 31.7219 75.098 30.6672 75.098C29.6125 75.098 28.7539 74.7853 28.0912 74.16C27.4379 73.5347 27.1112 72.6013 27.1112 71.36V65.214H28.0912ZM41.6171 75L39.1951 70.912H37.3891V75H36.4091V65.214H39.3491C40.4411 65.214 41.2671 65.4753 41.8271 65.998C42.3964 66.5207 42.6811 67.2067 42.6811 68.056C42.6811 68.7653 42.4757 69.372 42.0651 69.876C41.6637 70.3707 41.0664 70.6927 40.2731 70.842L42.7931 75H41.6171ZM37.3891 70.114H39.3631C40.1284 70.114 40.7024 69.9273 41.0851 69.554C41.4771 69.1807 41.6731 68.6813 41.6731 68.056C41.6731 67.412 41.4864 66.9173 41.1131 66.572C40.7397 66.2173 40.1517 66.04 39.3491 66.04H37.3891V70.114ZM51.4357 75.098C50.7917 75.098 50.2223 74.986 49.7277 74.762C49.2423 74.538 48.8597 74.2253 48.5797 73.824C48.2997 73.4227 48.1503 72.9747 48.1317 72.48H49.1677C49.2143 72.956 49.4243 73.376 49.7977 73.74C50.171 74.0947 50.717 74.272 51.4357 74.272C52.0983 74.272 52.621 74.104 53.0037 73.768C53.3957 73.4227 53.5917 72.9887 53.5917 72.466C53.5917 72.046 53.4843 71.71 53.2697 71.458C53.055 71.1967 52.789 71.0053 52.4717 70.884C52.1543 70.7533 51.7157 70.6133 51.1557 70.464C50.5023 70.2867 49.9843 70.114 49.6017 69.946C49.219 69.778 48.8923 69.5167 48.6217 69.162C48.351 68.8073 48.2157 68.3267 48.2157 67.72C48.2157 67.216 48.3463 66.768 48.6077 66.376C48.869 65.9747 49.2377 65.662 49.7137 65.438C50.1897 65.214 50.7357 65.102 51.3517 65.102C52.257 65.102 52.985 65.326 53.5357 65.774C54.0957 66.2127 54.4177 66.782 54.5017 67.482H53.4377C53.3723 67.0807 53.153 66.726 52.7797 66.418C52.4063 66.1007 51.9023 65.942 51.2677 65.942C50.6797 65.942 50.1897 66.1007 49.7977 66.418C49.4057 66.726 49.2097 67.1507 49.2097 67.692C49.2097 68.1027 49.317 68.434 49.5317 68.686C49.7463 68.938 50.0123 69.1293 50.3297 69.26C50.6563 69.3907 51.095 69.5307 51.6457 69.68C52.2803 69.8573 52.7937 70.0347 53.1857 70.212C53.5777 70.38 53.909 70.6413 54.1797 70.996C54.4503 71.3507 54.5857 71.8267 54.5857 72.424C54.5857 72.8813 54.4643 73.3153 54.2217 73.726C53.979 74.1367 53.6197 74.468 53.1437 74.72C52.6677 74.972 52.0983 75.098 51.4357 75.098ZM57.4594 65.214V75H56.4794V65.214H57.4594ZM65.4046 65.214V66.026H62.6886V75H61.7086V66.026H58.9786V65.214H65.4046ZM67.932 66.012V69.666H71.642V70.478H67.932V74.188H72.062V75H66.952V65.2H72.062V66.012H67.932ZM89.7068 65.214L86.9348 75H85.8428L83.3788 66.656L80.8588 75L79.7948 75.014L77.0788 65.214H78.1288L80.3688 73.796L82.8748 65.214H83.9668L86.4028 73.796L88.6568 65.214H89.7068ZM92.1859 65.214V75H91.2059V65.214H92.1859ZM95.3852 74.202H98.8992V75H94.4052V65.214H95.3852V74.202ZM101.278 74.202H104.792V75H100.298V65.214H101.278V74.202ZM109.584 70.1C109.584 69.1387 109.794 68.28 110.214 67.524C110.634 66.7587 111.208 66.166 111.936 65.746C112.664 65.3167 113.476 65.102 114.372 65.102C115.464 65.102 116.397 65.3633 117.172 65.886C117.956 66.3993 118.525 67.1273 118.88 68.07H117.732C117.452 67.4073 117.023 66.8893 116.444 66.516C115.875 66.1427 115.184 65.956 114.372 65.956C113.653 65.956 113.005 66.124 112.426 66.46C111.857 66.796 111.409 67.2813 111.082 67.916C110.755 68.5413 110.592 69.2693 110.592 70.1C110.592 70.9307 110.755 71.6587 111.082 72.284C111.409 72.9093 111.857 73.39 112.426 73.726C113.005 74.062 113.653 74.23 114.372 74.23C115.184 74.23 115.875 74.048 116.444 73.684C117.023 73.3107 117.452 72.7973 117.732 72.144H118.88C118.525 73.0773 117.956 73.8007 117.172 74.314C116.388 74.8273 115.455 75.084 114.372 75.084C113.476 75.084 112.664 74.874 111.936 74.454C111.208 74.0247 110.634 73.432 110.214 72.676C109.794 71.92 109.584 71.0613 109.584 70.1ZM125.229 75.098C124.324 75.098 123.502 74.888 122.765 74.468C122.028 74.0387 121.444 73.446 121.015 72.69C120.595 71.9247 120.385 71.0613 120.385 70.1C120.385 69.1387 120.595 68.28 121.015 67.524C121.444 66.7587 122.028 66.166 122.765 65.746C123.502 65.3167 124.324 65.102 125.229 65.102C126.144 65.102 126.97 65.3167 127.707 65.746C128.444 66.166 129.023 66.7587 129.443 67.524C129.863 68.28 130.073 69.1387 130.073 70.1C130.073 71.0613 129.863 71.9247 129.443 72.69C129.023 73.446 128.444 74.0387 127.707 74.468C126.97 74.888 126.144 75.098 125.229 75.098ZM125.229 74.244C125.957 74.244 126.61 74.076 127.189 73.74C127.768 73.404 128.225 72.9233 128.561 72.298C128.897 71.6633 129.065 70.9307 129.065 70.1C129.065 69.2693 128.897 68.5413 128.561 67.916C128.225 67.2907 127.768 66.81 127.189 66.474C126.61 66.138 125.957 65.97 125.229 65.97C124.501 65.97 123.848 66.138 123.269 66.474C122.69 66.81 122.233 67.2907 121.897 67.916C121.561 68.5413 121.393 69.2693 121.393 70.1C121.393 70.9307 121.561 71.6633 121.897 72.298C122.233 72.9233 122.69 73.404 123.269 73.74C123.848 74.076 124.501 74.244 125.229 74.244ZM139.244 75H138.264L132.846 66.768V75H131.866V65.214H132.846L138.264 73.432V65.214H139.244V75ZM149.22 65.214L145.51 75H144.39L140.68 65.214H141.744L144.95 73.936L148.184 65.214H149.22ZM151.672 66.012V69.666H155.382V70.478H151.672V74.188H155.802V75H150.692V65.2H155.802V66.012H151.672ZM162.941 75L160.519 70.912H158.713V75H157.733V65.214H160.673C161.765 65.214 162.591 65.4753 163.151 65.998C163.721 66.5207 164.005 67.2067 164.005 68.056C164.005 68.7653 163.8 69.372 163.389 69.876C162.988 70.3707 162.391 70.6927 161.597 70.842L164.117 75H162.941ZM158.713 70.114H160.687C161.453 70.114 162.027 69.9273 162.409 69.554C162.801 69.1807 162.997 68.6813 162.997 68.056C162.997 67.412 162.811 66.9173 162.437 66.572C162.064 66.2173 161.476 66.04 160.673 66.04H158.713V70.114ZM171.676 65.214V66.026H168.96V75H167.98V66.026H165.25V65.214H171.676ZM183.533 65.214L180.397 71.192V75H179.417V71.192L176.253 65.214H177.359L179.907 70.296L182.441 65.214H183.533ZM189.364 75.098C188.458 75.098 187.637 74.888 186.9 74.468C186.162 74.0387 185.579 73.446 185.15 72.69C184.73 71.9247 184.52 71.0613 184.52 70.1C184.52 69.1387 184.73 68.28 185.15 67.524C185.579 66.7587 186.162 66.166 186.9 65.746C187.637 65.3167 188.458 65.102 189.364 65.102C190.278 65.102 191.104 65.3167 191.842 65.746C192.579 66.166 193.158 66.7587 193.578 67.524C193.998 68.28 194.208 69.1387 194.208 70.1C194.208 71.0613 193.998 71.9247 193.578 72.69C193.158 73.446 192.579 74.0387 191.842 74.468C191.104 74.888 190.278 75.098 189.364 75.098ZM189.364 74.244C190.092 74.244 190.745 74.076 191.324 73.74C191.902 73.404 192.36 72.9233 192.696 72.298C193.032 71.6633 193.2 70.9307 193.2 70.1C193.2 69.2693 193.032 68.5413 192.696 67.916C192.36 67.2907 191.902 66.81 191.324 66.474C190.745 66.138 190.092 65.97 189.364 65.97C188.636 65.97 187.982 66.138 187.404 66.474C186.825 66.81 186.368 67.2907 186.032 67.916C185.696 68.5413 185.528 69.2693 185.528 70.1C185.528 70.9307 185.696 71.6633 186.032 72.298C186.368 72.9233 186.825 73.404 187.404 73.74C187.982 74.076 188.636 74.244 189.364 74.244ZM196.939 65.214V71.374C196.939 72.3447 197.168 73.0633 197.625 73.53C198.092 73.9967 198.726 74.23 199.529 74.23C200.332 74.23 200.957 74.0013 201.405 73.544C201.862 73.0773 202.091 72.354 202.091 71.374V65.214H203.071V71.36C203.071 72.6013 202.74 73.5347 202.077 74.16C201.424 74.7853 200.57 75.098 199.515 75.098C198.46 75.098 197.602 74.7853 196.939 74.16C196.286 73.5347 195.959 72.6013 195.959 71.36V65.214H196.939ZM214.825 65.214V66.026H212.109V75H211.129V66.026H208.399V65.214H214.825ZM220.768 75.098C219.863 75.098 219.041 74.888 218.304 74.468C217.567 74.0387 216.983 73.446 216.554 72.69C216.134 71.9247 215.924 71.0613 215.924 70.1C215.924 69.1387 216.134 68.28 216.554 67.524C216.983 66.7587 217.567 66.166 218.304 65.746C219.041 65.3167 219.863 65.102 220.768 65.102C221.683 65.102 222.509 65.3167 223.246 65.746C223.983 66.166 224.562 66.7587 224.982 67.524C225.402 68.28 225.612 69.1387 225.612 70.1C225.612 71.0613 225.402 71.9247 224.982 72.69C224.562 73.446 223.983 74.0387 223.246 74.468C222.509 74.888 221.683 75.098 220.768 75.098ZM220.768 74.244C221.496 74.244 222.149 74.076 222.728 73.74C223.307 73.404 223.764 72.9233 224.1 72.298C224.436 71.6633 224.604 70.9307 224.604 70.1C224.604 69.2693 224.436 68.5413 224.1 67.916C223.764 67.2907 223.307 66.81 222.728 66.474C222.149 66.138 221.496 65.97 220.768 65.97C220.04 65.97 219.387 66.138 218.808 66.474C218.229 66.81 217.772 67.2907 217.436 67.916C217.1 68.5413 216.932 69.2693 216.932 70.1C216.932 70.9307 217.1 71.6633 217.436 72.298C217.772 72.9233 218.229 73.404 218.808 73.74C219.387 74.076 220.04 74.244 220.768 74.244ZM236.917 72.676H232.465L231.611 75H230.575L234.145 65.34H235.251L238.807 75H237.771L236.917 72.676ZM236.623 71.864L234.691 66.572L232.759 71.864H236.623ZM241.36 74.202H244.874V75H240.38V65.214H241.36V74.202ZM251.998 65.214V66.026H249.282V75H248.302V66.026H245.572V65.214H251.998ZM254.526 65.214V75H253.546V65.214H254.526ZM259.713 75.098C259.069 75.098 258.5 74.986 258.005 74.762C257.52 74.538 257.137 74.2253 256.857 73.824C256.577 73.4227 256.428 72.9747 256.409 72.48H257.445C257.492 72.956 257.702 73.376 258.075 73.74C258.448 74.0947 258.994 74.272 259.713 74.272C260.376 74.272 260.898 74.104 261.281 73.768C261.673 73.4227 261.869 72.9887 261.869 72.466C261.869 72.046 261.762 71.71 261.547 71.458C261.332 71.1967 261.066 71.0053 260.749 70.884C260.432 70.7533 259.993 70.6133 259.433 70.464C258.78 70.2867 258.262 70.114 257.879 69.946C257.496 69.778 257.17 69.5167 256.899 69.162C256.628 68.8073 256.493 68.3267 256.493 67.72C256.493 67.216 256.624 66.768 256.885 66.376C257.146 65.9747 257.515 65.662 257.991 65.438C258.467 65.214 259.013 65.102 259.629 65.102C260.534 65.102 261.262 65.326 261.813 65.774C262.373 66.2127 262.695 66.782 262.779 67.482H261.715C261.65 67.0807 261.43 66.726 261.057 66.418C260.684 66.1007 260.18 65.942 259.545 65.942C258.957 65.942 258.467 66.1007 258.075 66.418C257.683 66.726 257.487 67.1507 257.487 67.692C257.487 68.1027 257.594 68.434 257.809 68.686C258.024 68.938 258.29 69.1293 258.607 69.26C258.934 69.3907 259.372 69.5307 259.923 69.68C260.558 69.8573 261.071 70.0347 261.463 70.212C261.855 70.38 262.186 70.6413 262.457 70.996C262.728 71.3507 262.863 71.8267 262.863 72.424C262.863 72.8813 262.742 73.3153 262.499 73.726C262.256 74.1367 261.897 74.468 261.421 74.72C260.945 74.972 260.376 75.098 259.713 75.098ZM274.319 65.34V75H273.339V67.286L269.895 75H269.181L265.737 67.314V75H264.757V65.34H265.793L269.531 73.712L273.269 65.34H274.319ZM16.288 96.07C16.0827 96.07 15.91 96 15.77 95.86C15.6393 95.72 15.574 95.5473 15.574 95.342C15.574 95.1367 15.6393 94.9687 15.77 94.838C15.91 94.698 16.0827 94.628 16.288 94.628C16.484 94.628 16.6473 94.698 16.778 94.838C16.918 94.9687 16.988 95.1367 16.988 95.342C16.988 95.5473 16.918 95.72 16.778 95.86C16.6473 96 16.484 96.07 16.288 96.07ZM16.288 117.07C16.0827 117.07 15.91 117 15.77 116.86C15.6393 116.72 15.574 116.547 15.574 116.342C15.574 116.137 15.6393 115.969 15.77 115.838C15.91 115.698 16.0827 115.628 16.288 115.628C16.484 115.628 16.6473 115.698 16.778 115.838C16.918 115.969 16.988 116.137 16.988 116.342C16.988 116.547 16.918 116.72 16.778 116.86C16.6473 117 16.484 117.07 16.288 117.07ZM16.288 138.07C16.0827 138.07 15.91 138 15.77 137.86C15.6393 137.72 15.574 137.547 15.574 137.342C15.574 137.137 15.6393 136.969 15.77 136.838C15.91 136.698 16.0827 136.628 16.288 136.628C16.484 136.628 16.6473 136.698 16.778 136.838C16.918 136.969 16.988 137.137 16.988 137.342C16.988 137.547 16.918 137.72 16.778 137.86C16.6473 138 16.484 138.07 16.288 138.07ZM16.288 159.07C16.0827 159.07 15.91 159 15.77 158.86C15.6393 158.72 15.574 158.547 15.574 158.342C15.574 158.137 15.6393 157.969 15.77 157.838C15.91 157.698 16.0827 157.628 16.288 157.628C16.484 157.628 16.6473 157.698 16.778 157.838C16.918 157.969 16.988 158.137 16.988 158.342C16.988 158.547 16.918 158.72 16.778 158.86C16.6473 159 16.484 159.07 16.288 159.07ZM16.288 180.07C16.0827 180.07 15.91 180 15.77 179.86C15.6393 179.72 15.574 179.547 15.574 179.342C15.574 179.137 15.6393 178.969 15.77 178.838C15.91 178.698 16.0827 178.628 16.288 178.628C16.484 178.628 16.6473 178.698 16.778 178.838C16.918 178.969 16.988 179.137 16.988 179.342C16.988 179.547 16.918 179.72 16.778 179.86C16.6473 180 16.484 180.07 16.288 180.07Z" fill="#023436"/>
</svg>
