<svg width="53" height="53" viewBox="0 0 53 53" fill="none" xmlns="http://www.w3.org/2000/svg">
<path fill-rule="evenodd" clip-rule="evenodd" d="M22.227 17.227C22.2987 17.155 22.384 17.0979 22.4779 17.059C22.5717 17.02 22.6724 17 22.774 17C22.8756 17 22.9762 17.02 23.0701 17.059C23.164 17.0979 23.2492 17.155 23.321 17.227L32.5922 26.4982C32.6642 26.57 32.7212 26.6552 32.7602 26.7491C32.7991 26.843 32.8192 26.9436 32.8192 27.0452C32.8192 27.1468 32.7991 27.2475 32.7602 27.3413C32.7212 27.4352 32.6642 27.5204 32.5922 27.5922L23.321 36.8634C23.1759 37.0085 22.9791 37.09 22.774 37.09C22.5688 37.09 22.3721 37.0085 22.227 36.8634C22.0819 36.7184 22.0004 36.5216 22.0004 36.3164C22.0004 36.1113 22.0819 35.9145 22.227 35.7694L30.9527 27.0452L22.227 18.321C22.155 18.2492 22.0979 18.164 22.059 18.0701C22.02 17.9762 22 17.8756 22 17.774C22 17.6724 22.02 17.5717 22.059 17.4779C22.0979 17.384 22.155 17.2987 22.227 17.227V17.227Z" fill="white"/>
<path fill-rule="evenodd" clip-rule="evenodd" d="M28.4078 17.227C28.4795 17.155 28.5648 17.0979 28.6587 17.059C28.7525 17.02 28.8531 17 28.9548 17C29.0564 17 29.157 17.02 29.2509 17.059C29.3447 17.0979 29.43 17.155 29.5018 17.227L38.773 26.4982C38.8449 26.57 38.902 26.6552 38.941 26.7491C38.9799 26.843 39 26.9436 39 27.0452C39 27.1468 38.9799 27.2475 38.941 27.3413C38.902 27.4352 38.8449 27.5204 38.773 27.5922L29.5018 36.8634C29.3567 37.0085 29.1599 37.09 28.9548 37.09C28.7496 37.09 28.5528 37.0085 28.4078 36.8634C28.2627 36.7184 28.1812 36.5216 28.1812 36.3164C28.1812 36.1113 28.2627 35.9145 28.4078 35.7694L37.1335 27.0452L28.4078 18.321C28.3358 18.2492 28.2787 18.164 28.2398 18.0701C28.2008 17.9762 28.1808 17.8756 28.1808 17.774C28.1808 17.6724 28.2008 17.5717 28.2398 17.4779C28.2787 17.384 28.3358 17.2987 28.4078 17.227V17.227Z" fill="white"/>
<circle cx="26.5" cy="26.5" r="26.5" fill="#058E3F"/>
<path fill-rule="evenodd" clip-rule="evenodd" d="M22.227 17.227C22.2987 17.155 22.384 17.0979 22.4779 17.059C22.5717 17.02 22.6724 17 22.774 17C22.8756 17 22.9762 17.02 23.0701 17.059C23.164 17.0979 23.2492 17.155 23.321 17.227L32.5922 26.4982C32.6642 26.57 32.7212 26.6552 32.7602 26.7491C32.7991 26.843 32.8192 26.9436 32.8192 27.0452C32.8192 27.1468 32.7991 27.2475 32.7602 27.3413C32.7212 27.4352 32.6642 27.5204 32.5922 27.5922L23.321 36.8634C23.1759 37.0085 22.9791 37.09 22.774 37.09C22.5688 37.09 22.3721 37.0085 22.227 36.8634C22.0819 36.7184 22.0004 36.5216 22.0004 36.3164C22.0004 36.1113 22.0819 35.9145 22.227 35.7694L30.9527 27.0452L22.227 18.321C22.155 18.2492 22.0979 18.164 22.059 18.0701C22.02 17.9762 22 17.8756 22 17.774C22 17.6724 22.02 17.5717 22.059 17.4779C22.0979 17.384 22.155 17.2987 22.227 17.227V17.227Z" fill="#023436"/>
</svg>
