<svg width="39" height="35" viewBox="0 0 39 35" fill="none" xmlns="http://www.w3.org/2000/svg">
<path fill-rule="evenodd" clip-rule="evenodd" d="M29.6513 6.375H34.5C36.5681 6.375 38.25 8.05689 38.25 10.125V30.75C38.25 32.8181 36.5681 34.5 34.5 34.5H4.5C2.43187 34.5 0.75 32.8181 0.75 30.75V10.125C0.75 8.05689 2.43187 6.375 4.5 6.375H9.34875L14.4244 1.29938C14.5982 1.12491 14.8048 0.986574 15.0323 0.892275C15.2598 0.798006 15.5037 0.749636 15.75 0.750002H23.25C23.4963 0.749636 23.7402 0.798006 23.9677 0.892275C24.1952 0.986574 24.4018 1.12491 24.5756 1.29938L29.6513 6.375ZM10.125 19.5C10.125 24.5812 14.4188 28.875 19.5 28.875C24.5813 28.875 28.875 24.5812 28.875 19.5C28.875 14.4169 24.5813 10.125 19.5 10.125C14.4188 10.125 10.125 14.4169 10.125 19.5ZM17.625 17.625V13.875H21.375V17.625H25.125V21.375H21.375V25.125H17.625V21.375H13.875V17.625H17.625Z" fill="black"/>
</svg>
