<svg width="11" height="11" viewBox="0 0 11 11" fill="none" xmlns="http://www.w3.org/2000/svg">
<path d="M6.29288 1.60875L7.09954 3.22208C7.20954 3.44667 7.50288 3.66208 7.75038 3.70333L9.21246 3.94625C10.1475 4.10208 10.3675 4.78042 9.69371 5.44958L8.55704 6.58625C8.36454 6.77875 8.25913 7.15 8.31871 7.41583L8.64413 8.82292C8.90079 9.93667 8.30954 10.3675 7.32413 9.78542L5.95371 8.97417C5.70621 8.8275 5.29829 8.8275 5.04621 8.97417L3.67579 9.78542C2.69496 10.3675 2.09913 9.93208 2.35579 8.82292L2.68121 7.41583C2.74079 7.15 2.63538 6.77875 2.44288 6.58625L1.30621 5.44958C0.637042 4.78042 0.852458 4.10208 1.78746 3.94625L3.24954 3.70333C3.49246 3.66208 3.78579 3.44667 3.89579 3.22208L4.70246 1.60875C5.14246 0.733332 5.85746 0.733332 6.29288 1.60875Z" stroke="#292D32" stroke-width="1.5" stroke-linecap="round" stroke-linejoin="round"/>
</svg>