<svg width="34" height="33" viewBox="0 0 34 33" fill="none" xmlns="http://www.w3.org/2000/svg">
<path d="M17 31.625L3.54163 24.0625V8.9375L17 1.375L30.4583 8.9375V24.0625L17 31.625ZM17 4.554L6.37496 10.5229V22.4771L17 28.4474L27.625 22.4771V10.5229L17 4.55263V4.554ZM17 22C15.6889 22.0003 14.4184 21.5593 13.4048 20.7523C12.3911 19.9452 11.6972 18.822 11.4412 17.5741C11.1852 16.3261 11.3829 15.0306 12.0007 13.9082C12.6185 12.7859 13.6181 11.9062 14.8293 11.419C16.0404 10.9319 17.3881 10.8674 18.6427 11.2365C19.8974 11.6057 20.9813 12.3857 21.7099 13.4436C22.4384 14.5015 22.7665 15.7719 22.6382 17.0382C22.5099 18.3046 21.9332 19.4886 21.0063 20.3885C19.9415 21.4166 18.5019 21.9956 17 22ZM17 13.75C16.6279 13.7499 16.2594 13.821 15.9156 13.9591C15.5718 14.0972 15.2594 14.2997 14.9963 14.555C14.7331 14.8103 14.5243 15.1134 14.3819 15.447C14.2394 15.7806 14.166 16.1382 14.1659 16.4993C14.1658 16.8604 14.239 17.2181 14.3813 17.5517C14.5236 17.8854 14.7322 18.1886 14.9953 18.4441C15.2583 18.6995 15.5706 18.9021 15.9143 19.0404C16.258 19.1787 16.6265 19.2499 16.9985 19.25C17.75 19.2502 18.4707 18.9606 19.0022 18.445C19.5337 17.9294 19.8324 17.23 19.8326 16.5007C19.8328 15.7713 19.5344 15.0718 19.0032 14.5559C18.472 14.0401 17.7514 13.7502 17 13.75Z" fill="black"/>
</svg>
