<svg width="17" height="17" viewBox="0 0 17 17" fill="none" xmlns="http://www.w3.org/2000/svg">
<path d="M7.79163 1.41666H6.37496C2.83329 1.41666 1.41663 2.83332 1.41663 6.37499V10.625C1.41663 14.1667 2.83329 15.5833 6.37496 15.5833H10.625C14.1666 15.5833 15.5833 14.1667 15.5833 10.625V9.20832" stroke="#292D32" stroke-width="1.5" stroke-linecap="round" stroke-linejoin="round"/>
<path d="M11.3617 2.13916L5.78004 7.72083C5.56754 7.93333 5.35504 8.35125 5.31254 8.65583L5.00795 10.7879C4.89462 11.56 5.44004 12.0983 6.21212 11.9921L8.3442 11.6875C8.6417 11.645 9.05962 11.4325 9.2792 11.22L14.8609 5.63833C15.8242 4.675 16.2775 3.55583 14.8609 2.13916C13.4442 0.722496 12.325 1.17583 11.3617 2.13916Z" stroke="#292D32" stroke-width="1.5" stroke-miterlimit="10" stroke-linecap="round" stroke-linejoin="round"/>
<path d="M10.5613 2.93958C11.0359 4.63249 12.3604 5.95708 14.0604 6.43874" stroke="#292D32" stroke-width="1.5" stroke-miterlimit="10" stroke-linecap="round" stroke-linejoin="round"/>
</svg>
