<svg width="11" height="11" viewBox="0 0 11 11" fill="none" xmlns="http://www.w3.org/2000/svg">
<path d="M6.29288 1.60876L7.09954 3.22209C7.20954 3.44667 7.50288 3.66209 7.75038 3.70334L9.21246 3.94626C10.1475 4.10209 10.3675 4.78042 9.69371 5.44959L8.55704 6.58626C8.36454 6.77876 8.25913 7.15001 8.31871 7.41584L8.64413 8.82292C8.90079 9.93667 8.30954 10.3675 7.32413 9.78542L5.95371 8.97417C5.70621 8.82751 5.29829 8.82751 5.04621 8.97417L3.67579 9.78542C2.69496 10.3675 2.09913 9.93209 2.35579 8.82292L2.68121 7.41584C2.74079 7.15001 2.63538 6.77876 2.44288 6.58626L1.30621 5.44959C0.637042 4.78042 0.852458 4.10209 1.78746 3.94626L3.24954 3.70334C3.49246 3.66209 3.78579 3.44667 3.89579 3.22209L4.70246 1.60876C5.14246 0.73334 5.85746 0.73334 6.29288 1.60876Z" stroke="#292D32" stroke-width="1.5" stroke-linecap="round" stroke-linejoin="round"/>
</svg>
