<svg width="136" height="18" viewBox="0 0 136 18" fill="none" xmlns="http://www.w3.org/2000/svg">
<path d="M1.55 12.031H5.817V13H0.36V1.117H1.55V12.031ZM11.5783 13.136C10.7056 13.136 9.91794 12.9433 9.21527 12.558C8.52394 12.1613 7.97427 11.606 7.56627 10.892C7.16961 10.1667 6.97127 9.32233 6.97127 8.359C6.97127 7.39567 7.17527 6.557 7.58327 5.843C7.99127 5.11767 8.54661 4.56233 9.24927 4.177C9.95194 3.78033 10.7396 3.582 11.6123 3.582C12.4849 3.582 13.2726 3.78033 13.9753 4.177C14.6893 4.56233 15.2446 5.11767 15.6413 5.843C16.0493 6.557 16.2533 7.39567 16.2533 8.359C16.2533 9.311 16.0493 10.1497 15.6413 10.875C15.2333 11.6003 14.6723 12.1613 13.9583 12.558C13.2443 12.9433 12.4509 13.136 11.5783 13.136ZM11.5783 12.099C12.1903 12.099 12.7569 11.963 13.2783 11.691C13.7996 11.4077 14.2189 10.9883 14.5363 10.433C14.8649 9.86633 15.0293 9.175 15.0293 8.359C15.0293 7.543 14.8706 6.85733 14.5533 6.302C14.2359 5.73533 13.8166 5.316 13.2953 5.044C12.7739 4.76067 12.2073 4.619 11.5953 4.619C10.9833 4.619 10.4166 4.76067 9.89527 5.044C9.37394 5.316 8.95461 5.73533 8.63727 6.302C8.33127 6.85733 8.17827 7.543 8.17827 8.359C8.17827 9.175 8.33127 9.86633 8.63727 10.433C8.95461 10.9883 9.36827 11.4077 9.87827 11.691C10.3996 11.963 10.9663 12.099 11.5783 12.099ZM22.3155 3.582C23.1882 3.582 23.9475 3.786 24.5935 4.194C25.2395 4.602 25.7042 5.11767 25.9875 5.741V3.718H27.1775V13.238C27.1775 14.088 26.9905 14.8417 26.6165 15.499C26.2538 16.1563 25.7438 16.6607 25.0865 17.012C24.4292 17.3747 23.6812 17.556 22.8425 17.556C21.6525 17.556 20.6608 17.2727 19.8675 16.706C19.0855 16.1393 18.5982 15.3687 18.4055 14.394H19.5785C19.7825 15.04 20.1678 15.5557 20.7345 15.941C21.3125 16.3263 22.0152 16.519 22.8425 16.519C23.4432 16.519 23.9815 16.3887 24.4575 16.128C24.9335 15.8787 25.3075 15.5047 25.5795 15.006C25.8515 14.5073 25.9875 13.918 25.9875 13.238V10.943C25.6928 11.5777 25.2225 12.1047 24.5765 12.524C23.9418 12.932 23.1882 13.136 22.3155 13.136C21.4655 13.136 20.7005 12.9377 20.0205 12.541C19.3518 12.1443 18.8248 11.5833 18.4395 10.858C18.0655 10.1327 17.8785 9.294 17.8785 8.342C17.8785 7.39 18.0655 6.557 18.4395 5.843C18.8248 5.11767 19.3518 4.56233 20.0205 4.177C20.7005 3.78033 21.4655 3.582 22.3155 3.582ZM25.9875 8.359C25.9875 7.611 25.8345 6.95367 25.5285 6.387C25.2225 5.82033 24.8032 5.384 24.2705 5.078C23.7492 4.772 23.1712 4.619 22.5365 4.619C21.8792 4.619 21.2898 4.76633 20.7685 5.061C20.2472 5.35567 19.8335 5.78633 19.5275 6.353C19.2328 6.90833 19.0855 7.57133 19.0855 8.342C19.0855 9.10133 19.2328 9.77 19.5275 10.348C19.8335 10.9147 20.2472 11.351 20.7685 11.657C21.2898 11.9517 21.8792 12.099 22.5365 12.099C23.1712 12.099 23.7492 11.946 24.2705 11.64C24.8032 11.334 25.2225 10.8977 25.5285 10.331C25.8345 9.76433 25.9875 9.107 25.9875 8.359ZM35.1542 1.967C34.9162 1.967 34.7122 1.882 34.5422 1.712C34.3722 1.542 34.2872 1.33233 34.2872 1.083C34.2872 0.833666 34.3722 0.629666 34.5422 0.470999C34.7122 0.300999 34.9162 0.215999 35.1542 0.215999C35.3922 0.215999 35.5962 0.300999 35.7662 0.470999C35.9362 0.629666 36.0212 0.833666 36.0212 1.083C36.0212 1.33233 35.9362 1.542 35.7662 1.712C35.5962 1.882 35.3922 1.967 35.1542 1.967ZM35.7492 3.718V13H34.5592V3.718H35.7492ZM42.796 3.548C43.9067 3.548 44.8133 3.89367 45.516 4.585C46.2187 5.265 46.57 6.25667 46.57 7.56V13H45.397V7.696C45.397 6.68733 45.142 5.91667 44.632 5.384C44.1333 4.85133 43.4477 4.585 42.575 4.585C41.6797 4.585 40.9657 4.86833 40.433 5.435C39.9003 6.00167 39.634 6.83467 39.634 7.934V13H38.444V3.718H39.634V5.299C39.9287 4.73233 40.3537 4.30167 40.909 4.007C41.4643 3.701 42.0933 3.548 42.796 3.548ZM57.9298 13.136C57.0572 13.136 56.2695 12.9433 55.5668 12.558C54.8755 12.1613 54.3258 11.606 53.9178 10.892C53.5212 10.1667 53.3228 9.32233 53.3228 8.359C53.3228 7.39567 53.5268 6.557 53.9348 5.843C54.3428 5.11767 54.8982 4.56233 55.6008 4.177C56.3035 3.78033 57.0912 3.582 57.9638 3.582C58.8365 3.582 59.6242 3.78033 60.3268 4.177C61.0408 4.56233 61.5962 5.11767 61.9928 5.843C62.4008 6.557 62.6048 7.39567 62.6048 8.359C62.6048 9.311 62.4008 10.1497 61.9928 10.875C61.5848 11.6003 61.0238 12.1613 60.3098 12.558C59.5958 12.9433 58.8025 13.136 57.9298 13.136ZM57.9298 12.099C58.5418 12.099 59.1085 11.963 59.6298 11.691C60.1512 11.4077 60.5705 10.9883 60.8878 10.433C61.2165 9.86633 61.3808 9.175 61.3808 8.359C61.3808 7.543 61.2222 6.85733 60.9048 6.302C60.5875 5.73533 60.1682 5.316 59.6468 5.044C59.1255 4.76067 58.5588 4.619 57.9468 4.619C57.3348 4.619 56.7682 4.76067 56.2468 5.044C55.7255 5.316 55.3062 5.73533 54.9888 6.302C54.6828 6.85733 54.5298 7.543 54.5298 8.359C54.5298 9.175 54.6828 9.86633 54.9888 10.433C55.3062 10.9883 55.7198 11.4077 56.2298 11.691C56.7512 11.963 57.3178 12.099 57.9298 12.099ZM65.9641 5.367C66.2247 4.789 66.6214 4.34133 67.1541 4.024C67.6981 3.70667 68.3611 3.548 69.1431 3.548V4.789H68.8201C67.9587 4.789 67.2674 5.02133 66.7461 5.486C66.2247 5.95067 65.9641 6.727 65.9641 7.815V13H64.7741V3.718H65.9641V5.367ZM78.7943 13.136C77.7289 13.136 76.8563 12.8923 76.1763 12.405C75.5076 11.9063 75.1336 11.232 75.0543 10.382H76.2783C76.3349 10.9033 76.5786 11.3283 77.0093 11.657C77.4513 11.9743 78.0406 12.133 78.7773 12.133C79.4233 12.133 79.9276 11.98 80.2903 11.674C80.6643 11.368 80.8513 10.9883 80.8513 10.535C80.8513 10.2177 80.7493 9.957 80.5453 9.753C80.3413 9.549 80.0806 9.39033 79.7633 9.277C79.4573 9.15233 79.0379 9.022 78.5053 8.886C77.8139 8.70467 77.2529 8.52333 76.8223 8.342C76.3916 8.16067 76.0233 7.89433 75.7173 7.543C75.4226 7.18033 75.2753 6.69867 75.2753 6.098C75.2753 5.64467 75.4113 5.22533 75.6833 4.84C75.9553 4.45467 76.3406 4.14867 76.8393 3.922C77.3379 3.69533 77.9046 3.582 78.5393 3.582C79.5366 3.582 80.3413 3.837 80.9533 4.347C81.5653 4.84567 81.8939 5.537 81.9393 6.421H80.7493C80.7153 5.877 80.4999 5.44067 80.1033 5.112C79.7179 4.772 79.1853 4.602 78.5053 4.602C77.9046 4.602 77.4173 4.74367 77.0433 5.027C76.6693 5.31033 76.4823 5.66167 76.4823 6.081C76.4823 6.44367 76.5899 6.744 76.8053 6.982C77.0319 7.20867 77.3096 7.39 77.6383 7.526C77.9669 7.65067 78.4089 7.79233 78.9643 7.951C79.6329 8.13233 80.1656 8.308 80.5623 8.478C80.9589 8.648 81.2989 8.89733 81.5823 9.226C81.8656 9.55467 82.0129 9.991 82.0243 10.535C82.0243 11.0337 81.8883 11.4813 81.6163 11.878C81.3443 12.2633 80.9646 12.5693 80.4773 12.796C79.9899 13.0227 79.4289 13.136 78.7943 13.136ZM84.8593 1.967C84.6213 1.967 84.4173 1.882 84.2473 1.712C84.0773 1.542 83.9923 1.33233 83.9923 1.083C83.9923 0.833666 84.0773 0.629666 84.2473 0.470999C84.4173 0.300999 84.6213 0.215999 84.8593 0.215999C85.0973 0.215999 85.3013 0.300999 85.4713 0.470999C85.6413 0.629666 85.7263 0.833666 85.7263 1.083C85.7263 1.33233 85.6413 1.542 85.4713 1.712C85.3013 1.882 85.0973 1.967 84.8593 1.967ZM85.4543 3.718V13H84.2643V3.718H85.4543ZM92.0421 3.582C92.9147 3.582 93.6741 3.786 94.3201 4.194C94.9661 4.602 95.4307 5.11767 95.7141 5.741V3.718H96.9041V13.238C96.9041 14.088 96.7171 14.8417 96.3431 15.499C95.9804 16.1563 95.4704 16.6607 94.8131 17.012C94.1557 17.3747 93.4077 17.556 92.5691 17.556C91.3791 17.556 90.3874 17.2727 89.5941 16.706C88.8121 16.1393 88.3247 15.3687 88.1321 14.394H89.3051C89.5091 15.04 89.8944 15.5557 90.4611 15.941C91.0391 16.3263 91.7417 16.519 92.5691 16.519C93.1697 16.519 93.7081 16.3887 94.1841 16.128C94.6601 15.8787 95.0341 15.5047 95.3061 15.006C95.5781 14.5073 95.7141 13.918 95.7141 13.238V10.943C95.4194 11.5777 94.9491 12.1047 94.3031 12.524C93.6684 12.932 92.9147 13.136 92.0421 13.136C91.1921 13.136 90.4271 12.9377 89.7471 12.541C89.0784 12.1443 88.5514 11.5833 88.1661 10.858C87.7921 10.1327 87.6051 9.294 87.6051 8.342C87.6051 7.39 87.7921 6.557 88.1661 5.843C88.5514 5.11767 89.0784 4.56233 89.7471 4.177C90.4271 3.78033 91.1921 3.582 92.0421 3.582ZM95.7141 8.359C95.7141 7.611 95.5611 6.95367 95.2551 6.387C94.9491 5.82033 94.5297 5.384 93.9971 5.078C93.4757 4.772 92.8977 4.619 92.2631 4.619C91.6057 4.619 91.0164 4.76633 90.4951 5.061C89.9737 5.35567 89.5601 5.78633 89.2541 6.353C88.9594 6.90833 88.8121 7.57133 88.8121 8.342C88.8121 9.10133 88.9594 9.77 89.2541 10.348C89.5601 10.9147 89.9737 11.351 90.4951 11.657C91.0164 11.9517 91.6057 12.099 92.2631 12.099C92.8977 12.099 93.4757 11.946 93.9971 11.64C94.5297 11.334 94.9491 10.8977 95.2551 10.331C95.5611 9.76433 95.7141 9.107 95.7141 8.359ZM103.973 3.548C105.083 3.548 105.99 3.89367 106.693 4.585C107.395 5.265 107.747 6.25667 107.747 7.56V13H106.574V7.696C106.574 6.68733 106.319 5.91667 105.809 5.384C105.31 4.85133 104.624 4.585 103.752 4.585C102.856 4.585 102.142 4.86833 101.61 5.435C101.077 6.00167 100.811 6.83467 100.811 7.934V13H99.6207V3.718H100.811V5.299C101.105 4.73233 101.53 4.30167 102.086 4.007C102.641 3.701 103.27 3.548 103.973 3.548ZM123.085 3.718V13H121.895V11.368C121.623 11.946 121.203 12.388 120.637 12.694C120.07 13 119.435 13.153 118.733 13.153C117.622 13.153 116.715 12.813 116.013 12.133C115.31 11.4417 114.959 10.4443 114.959 9.141V3.718H116.132V9.005C116.132 10.0137 116.381 10.7843 116.88 11.317C117.39 11.8497 118.081 12.116 118.954 12.116C119.849 12.116 120.563 11.8327 121.096 11.266C121.628 10.6993 121.895 9.86633 121.895 8.767V3.718H123.085ZM126.974 5.758C127.269 5.13467 127.734 4.619 128.368 4.211C129.014 3.79167 129.779 3.582 130.663 3.582C131.502 3.582 132.256 3.78033 132.924 4.177C133.604 4.56233 134.131 5.11767 134.505 5.843C134.891 6.557 135.083 7.39 135.083 8.342C135.083 9.294 134.891 10.1327 134.505 10.858C134.131 11.5833 133.604 12.1443 132.924 12.541C132.256 12.9377 131.502 13.136 130.663 13.136C129.791 13.136 129.031 12.932 128.385 12.524C127.739 12.1047 127.269 11.5833 126.974 10.96V17.386H125.801V3.718H126.974V5.758ZM133.876 8.342C133.876 7.57133 133.723 6.90833 133.417 6.353C133.123 5.78633 132.715 5.35567 132.193 5.061C131.672 4.76633 131.083 4.619 130.425 4.619C129.791 4.619 129.207 4.772 128.674 5.078C128.153 5.384 127.739 5.82033 127.433 6.387C127.127 6.95367 126.974 7.611 126.974 8.359C126.974 9.107 127.127 9.76433 127.433 10.331C127.739 10.8977 128.153 11.334 128.674 11.64C129.207 11.946 129.791 12.099 130.425 12.099C131.083 12.099 131.672 11.9517 132.193 11.657C132.715 11.351 133.123 10.9147 133.417 10.348C133.723 9.77 133.876 9.10133 133.876 8.342Z" fill="black"/>
</svg>
