<svg width="22" height="21" viewBox="0 0 22 21" fill="none" xmlns="http://www.w3.org/2000/svg">
<path d="M18.5625 5.33203H15.6406L14.9445 3.46992C14.8964 3.3425 14.8083 3.23236 14.6922 3.15455C14.5761 3.07673 14.4376 3.03504 14.2957 3.03516H7.7043C7.41426 3.03516 7.1543 3.20947 7.05762 3.46992L6.35938 5.33203H3.4375C2.48789 5.33203 1.71875 6.06621 1.71875 6.97266V16.3242C1.71875 17.2307 2.48789 17.9648 3.4375 17.9648H18.5625C19.5121 17.9648 20.2812 17.2307 20.2812 16.3242V6.97266C20.2812 6.06621 19.5121 5.33203 18.5625 5.33203ZM11 14.6836C9.10078 14.6836 7.5625 13.2152 7.5625 11.4023C7.5625 9.58945 9.10078 8.12109 11 8.12109C12.8992 8.12109 14.4375 9.58945 14.4375 11.4023C14.4375 13.2152 12.8992 14.6836 11 14.6836ZM8.9375 11.4023C8.9375 11.9245 9.1548 12.4252 9.54159 12.7945C9.92839 13.1637 10.453 13.3711 11 13.3711C11.547 13.3711 12.0716 13.1637 12.4584 12.7945C12.8452 12.4252 13.0625 11.9245 13.0625 11.4023C13.0625 10.8802 12.8452 10.3794 12.4584 10.0102C12.0716 9.64101 11.547 9.43359 11 9.43359C10.453 9.43359 9.92839 9.64101 9.54159 10.0102C9.1548 10.3794 8.9375 10.8802 8.9375 11.4023Z" fill="black"/>
</svg>
