<svg width="17" height="21" viewBox="0 0 17 21" fill="none" xmlns="http://www.w3.org/2000/svg">
<path fill-rule="evenodd" clip-rule="evenodd" d="M0.226981 0.226981C0.298749 0.155031 0.384006 0.097947 0.47787 0.0589979C0.571733 0.0200488 0.672359 0 0.773983 0C0.875607 0 0.976232 0.0200488 1.0701 0.0589979C1.16396 0.097947 1.24922 0.155031 1.32099 0.226981L10.5922 9.4982C10.6642 9.56997 10.7212 9.65523 10.7602 9.74909C10.7991 9.84296 10.8192 9.94358 10.8192 10.0452C10.8192 10.1468 10.7991 10.2475 10.7602 10.3413C10.7212 10.4352 10.6642 10.5204 10.5922 10.5922L1.32099 19.8634C1.17591 20.0085 0.979149 20.09 0.773983 20.09C0.568817 20.09 0.372055 20.0085 0.226981 19.8634C0.0819068 19.7184 0.000405246 19.5216 0.000405246 19.3164C0.000405246 19.1113 0.0819068 18.9145 0.226981 18.7694L8.95275 10.0452L0.226981 1.32099C0.155031 1.24922 0.097947 1.16396 0.0589979 1.0701C0.0200488 0.976232 0 0.875607 0 0.773983C0 0.672359 0.0200488 0.571734 0.0589979 0.47787C0.097947 0.384006 0.155031 0.298749 0.226981 0.226981Z" fill="#023436"/>
<path fill-rule="evenodd" clip-rule="evenodd" d="M6.40779 0.226981C6.47956 0.155031 6.56482 0.097947 6.65868 0.0589979C6.75255 0.0200488 6.85317 0 6.9548 0C7.05642 0 7.15705 0.0200488 7.25091 0.0589979C7.34477 0.097947 7.43003 0.155031 7.5018 0.226981L16.773 9.4982C16.845 9.56997 16.9021 9.65523 16.941 9.74909C16.98 9.84296 17 9.94358 17 10.0452C17 10.1468 16.98 10.2475 16.941 10.3413C16.9021 10.4352 16.845 10.5204 16.773 10.5922L7.5018 19.8634C7.35672 20.0085 7.15996 20.09 6.9548 20.09C6.74963 20.09 6.55287 20.0085 6.40779 19.8634C6.26272 19.7184 6.18122 19.5216 6.18122 19.3164C6.18122 19.1113 6.26272 18.9145 6.40779 18.7694L15.1336 10.0452L6.40779 1.32099C6.33584 1.24922 6.27876 1.16396 6.23981 1.0701C6.20086 0.976232 6.18081 0.875607 6.18081 0.773983C6.18081 0.672359 6.20086 0.571734 6.23981 0.47787C6.27876 0.384006 6.33584 0.298749 6.40779 0.226981V0.226981Z" fill="#023436"/>
</svg>
